<?xml version="1.0" encoding="utf-8"?><svg fill="none" height="100%" width="100%" viewBox="0 0 500 500" xmlns:xlink="http://www.w3.org/1999/xlink" xmlns="http://www.w3.org/2000/svg"><defs /><g transform="matrix(0.707,0.707,-0.707,0.707,169.884,414.049)" id="Rectangle_4"><g id="Rectangle 1" transform="matrix(1,0,0,1,-125,-107)"><path d="M57,-57C57,-57,57,57,57,57C57,57,-57,57,-57,57C-57,57,-57,-57,-57,-57C-57,-57,57,-57,57,-57Z" stroke-miterlimit="4" stroke-linejoin="miter" stroke-linecap="butt" stroke-width="0" stroke-opacity="1" stroke="#ffffff" fill="#7f92ae" fill-opacity="1"><animate repeatCount="indefinite" attributeName="d" dur="1.034368s" begin="0s" calcMode="spline" values="M57,-57C57,-57,57,57,57,57C57,57,-57,57,-57,57C-57,57,-57,-57,-57,-57C-57,-57,57,-57,57,-57Z; M0.718,-187.388C32.155,-187.388,57.64,-161.903,57.64,-130.466C57.64,-99.029,32.155,-73.544,0.718,-73.544C-30.719,-73.544,-56.204,-99.029,-56.204,-130.466C-56.204,-161.903,-30.719,-187.388,0.718,-187.388Z; M188.6,-188.5C188.6,-188.5,188.6,-74.5,188.6,-74.5C188.6,-74.5,74.6,-74.5,74.6,-74.5C74.6,-74.5,74.6,-188.5,74.6,-188.5C74.6,-188.5,188.6,-188.5,188.6,-188.5Z; M188.6,-188.5C188.6,-188.5,188.6,-74.5,188.6,-74.5C188.6,-74.5,74.6,-74.5,74.6,-74.5C74.6,-74.5,74.6,-188.5,74.6,-188.5C74.6,-188.5,188.6,-188.5,188.6,-188.5Z" keyTimes="0; 0.483871; 0.967742; 1" keySplines="0.333 0 0.667 1; 0.333 0 0.667 1; 0 0 1 1" fill="freeze" /></path></g></g><g transform="matrix(0.707,-0.707,0.707,0.707,414.049,330.132)" id="Rectangle_3"><g id="Rectangle 1" transform="matrix(1,0,0,1,-125,-107)"><path d="M57,-57C57,-57,57,57,57,57C57,57,-57,57,-57,57C-57,57,-57,-57,-57,-57C-57,-57,57,-57,57,-57Z" stroke-miterlimit="4" stroke-linejoin="miter" stroke-linecap="butt" stroke-width="0" stroke-opacity="1" stroke="#ffffff" fill="#2d3541" fill-opacity="1"><animate repeatCount="indefinite" attributeName="d" dur="1.034368s" begin="0s" calcMode="spline" values="M57,-57C57,-57,57,57,57,57C57,57,-57,57,-57,57C-57,57,-57,-57,-57,-57C-57,-57,57,-57,57,-57Z; M0.718,-187.388C32.155,-187.388,57.64,-161.903,57.64,-130.466C57.64,-99.029,32.155,-73.544,0.718,-73.544C-30.719,-73.544,-56.204,-99.029,-56.204,-130.466C-56.204,-161.903,-30.719,-187.388,0.718,-187.388Z; M188.6,-188.5C188.6,-188.5,188.6,-74.5,188.6,-74.5C188.6,-74.5,74.6,-74.5,74.6,-74.5C74.6,-74.5,74.6,-188.5,74.6,-188.5C74.6,-188.5,188.6,-188.5,188.6,-188.5Z; M188.6,-188.5C188.6,-188.5,188.6,-74.5,188.6,-74.5C188.6,-74.5,74.6,-74.5,74.6,-74.5C74.6,-74.5,74.6,-188.5,74.6,-188.5C74.6,-188.5,188.6,-188.5,188.6,-188.5Z" keyTimes="0; 0.483871; 0.967742; 1" keySplines="0.333 0 0.667 1; 0.333 0 0.667 1; 0 0 1 1" fill="freeze" /></path></g></g><g transform="matrix(-0.707,-0.707,0.707,-0.707,330.272,85.951)" id="Rectangle_2"><g id="Rectangle 1" transform="matrix(1,0,0,1,-125,-107)"><path d="M57,-57C57,-57,57,57,57,57C57,57,-57,57,-57,57C-57,57,-57,-57,-57,-57C-57,-57,57,-57,57,-57Z" stroke-miterlimit="4" stroke-linejoin="miter" stroke-linecap="butt" stroke-width="0" stroke-opacity="1" stroke="#ffffff" fill="#7f92ae" fill-opacity="1"><animate repeatCount="indefinite" attributeName="d" dur="1.034368s" begin="0s" calcMode="spline" values="M57,-57C57,-57,57,57,57,57C57,57,-57,57,-57,57C-57,57,-57,-57,-57,-57C-57,-57,57,-57,57,-57Z; M0.718,-187.388C32.155,-187.388,57.64,-161.903,57.64,-130.466C57.64,-99.029,32.155,-73.544,0.718,-73.544C-30.719,-73.544,-56.204,-99.029,-56.204,-130.466C-56.204,-161.903,-30.719,-187.388,0.718,-187.388Z; M188.6,-188.5C188.6,-188.5,188.6,-74.5,188.6,-74.5C188.6,-74.5,74.6,-74.5,74.6,-74.5C74.6,-74.5,74.6,-188.5,74.6,-188.5C74.6,-188.5,188.6,-188.5,188.6,-188.5Z; M188.6,-188.5C188.6,-188.5,188.6,-74.5,188.6,-74.5C188.6,-74.5,74.6,-74.5,74.6,-74.5C74.6,-74.5,74.6,-188.5,74.6,-188.5C74.6,-188.5,188.6,-188.5,188.6,-188.5Z" keyTimes="0; 0.483871; 0.967742; 1" keySplines="0.333 0 0.667 1; 0.333 0 0.667 1; 0 0 1 1" fill="freeze" /></path></g></g><g transform="matrix(-0.707,0.707,-0.707,-0.707,85.951,168.963)" id="Rectangle_1"><g id="Rectangle 1" transform="matrix(1,0,0,1,-125,-107)"><path d="M57,-57C57,-57,57,57,57,57C57,57,-57,57,-57,57C-57,57,-57,-57,-57,-57C-57,-57,57,-57,57,-57Z" stroke-miterlimit="4" stroke-linejoin="miter" stroke-linecap="butt" stroke-width="0" stroke-opacity="1" stroke="#ffffff" fill="#2d3541" fill-opacity="1"><animate repeatCount="indefinite" attributeName="d" dur="1.034368s" begin="0s" calcMode="spline" values="M57,-57C57,-57,57,57,57,57C57,57,-57,57,-57,57C-57,57,-57,-57,-57,-57C-57,-57,57,-57,57,-57Z; M0.718,-187.388C32.155,-187.388,57.64,-161.903,57.64,-130.466C57.64,-99.029,32.155,-73.544,0.718,-73.544C-30.719,-73.544,-56.204,-99.029,-56.204,-130.466C-56.204,-161.903,-30.719,-187.388,0.718,-187.388Z; M188.6,-188.5C188.6,-188.5,188.6,-74.5,188.6,-74.5C188.6,-74.5,74.6,-74.5,74.6,-74.5C74.6,-74.5,74.6,-188.5,74.6,-188.5C74.6,-188.5,188.6,-188.5,188.6,-188.5Z; M188.6,-188.5C188.6,-188.5,188.6,-74.5,188.6,-74.5C188.6,-74.5,74.6,-74.5,74.6,-74.5C74.6,-74.5,74.6,-188.5,74.6,-188.5C74.6,-188.5,188.6,-188.5,188.6,-188.5Z" keyTimes="0; 0.483871; 0.967742; 1" keySplines="0.333 0 0.667 1; 0.333 0 0.667 1; 0 0 1 1" fill="freeze" /></path></g></g></svg>